<?xml version="1.0" encoding="UTF-8" standalone="no"?>
<svg
   xmlns:dc="http://purl.org/dc/elements/1.1/"
   xmlns:cc="http://creativecommons.org/ns#"
   xmlns:rdf="http://www.w3.org/1999/02/22-rdf-syntax-ns#"
   xmlns:svg="http://www.w3.org/2000/svg"
   xmlns="http://www.w3.org/2000/svg"
   xmlns:sodipodi="http://sodipodi.sourceforge.net/DTD/sodipodi-0.dtd"
   xmlns:inkscape="http://www.inkscape.org/namespaces/inkscape"
   width="333.64932mm"
   height="58.94598mm"
   viewBox="0 0 333.64932 58.94598"
   version="1.1"
   id="svg4479"
   inkscape:version="1.0 (4035a4fb49, 2020-05-01)"
   sodipodi:docname="HighSchoolIO_Logo2 white.svg"
   inkscape:export-filename="C:\Users\jman9\Desktop\highschoolio_logo.png"
   inkscape:export-xdpi="464.54001"
   inkscape:export-ydpi="464.54001">
  <defs
     id="defs4473" />
  <sodipodi:namedview
     id="base"
     pagecolor="#ffffff"
     bordercolor="#666666"
     borderopacity="1.0"
     inkscape:pageopacity="0.0"
     inkscape:pageshadow="2"
     inkscape:zoom="0.49497475"
     inkscape:cx="181.15629"
     inkscape:cy="-97.234599"
     inkscape:document-units="mm"
     inkscape:current-layer="layer1"
     inkscape:document-rotation="0"
     showgrid="false"
     fit-margin-top="0"
     fit-margin-left="0"
     fit-margin-right="0"
     fit-margin-bottom="0"
     inkscape:window-width="1920"
     inkscape:window-height="1001"
     inkscape:window-x="-9"
     inkscape:window-y="-9"
     inkscape:window-maximized="1" />
  <metadata
     id="metadata4476">
    <rdf:RDF>
      <cc:Work
         rdf:about="">
        <dc:format>image/svg+xml</dc:format>
        <dc:type
           rdf:resource="http://purl.org/dc/dcmitype/StillImage" />
        <dc:title></dc:title>
      </cc:Work>
    </rdf:RDF>
  </metadata>
  <g
     inkscape:label="Layer 1"
     inkscape:groupmode="layer"
     id="layer1"
     transform="translate(81.021084,-114.12225)">
    <path
       d="m -60.718933,119.22558 v 13.45913 2.22157 h 0.680062 v 1.99988 h -0.680062 v 2.44378 h 4.284494 v -8.44807 h 9.504327 v 8.44807 h 4.314465 v -1.75442 -3.34501 h -1.553908 v -2.0004 h 1.553908 v -13.02453 h -4.314465 v 7.90495 h -9.504327 v -2.06293 h -1.816944 v -2.07119 h 1.816944 v -3.77083 z"
       style="font-weight:bold;font-size:30.1715px;line-height:0.75;font-family:'Proxima Nova';-inkscape-font-specification:'Proxima Nova Bold';fill-opacity:1;stroke-width:0.754287;fill:#ffffff"
       id="path3603" />
    <path
       d="m -38.67945,119.22558 v 1.24282 h 1.128096 v 1.99988 h -1.128096 v 4.63848 h 1.67173 v 1.99987 h -1.67173 v 10.24331 h 4.28449 v -3.69952 h -1.473811 v -1.99988 h 1.473811 v -14.42496 z"
       style="font-weight:bold;font-size:30.1715px;line-height:0.75;font-family:'Proxima Nova';-inkscape-font-specification:'Proxima Nova Bold';fill-opacity:1;stroke-width:0.754287;fill:#ffffff"
       id="path3605" />
    <path
       d="m -20.684167,118.89382 c -1.786459,0 -3.47427,0.37441 -4.960421,1.07177 v 1.49138 h -2.313554 c -2.109105,1.81266 -3.436483,4.50949 -3.436483,7.84603 0,6.33602 4.827008,10.43916 10.710458,10.43916 1.844815,0 3.488531,-0.38606 4.928897,-1.06299 h -0.117306 v -1.99987 h 3.035475 c 0.250264,-0.23618 0.492066,-0.48156 0.72192,-0.73846 v -7.72407 h -9.594765 v 3.74137 h 5.310272 v 2.41381 c -0.814631,0.75428 -2.504374,1.5384 -4.284493,1.5384 -3.353501,0 -5.864799,-2.36834 -6.251816,-5.70042 h -1.046964 v -1.99988 h 1.070219 c 0.457297,-3.23399 2.937708,-5.51439 6.228561,-5.51439 2.14217,0 3.862015,1.20658 4.767149,2.62464 l 3.560508,-1.93115 c -1.508572,-2.38354 -4.133818,-4.49533 -8.327657,-4.49533 z"
       style="font-weight:bold;font-size:30.1715px;line-height:0.75;font-family:'Proxima Nova';-inkscape-font-specification:'Proxima Nova Bold';fill-opacity:1;stroke-width:0.754287;fill:#ffffff"
       id="path3607" />
    <path
       d="m -8.6849,119.22558 v 14.44822 h 2.17506 v 2.00039 H -8.6849 v 3.67575 h 4.284493 v -8.44807 h 9.5043284 v 8.44807 h 4.314465 v -7.45588 h -2.528527 v -1.99988 h 2.528527 v -7.61452 h -0.851109 v -2.00039 h 0.851109 v -1.05369 h -4.314465 v 7.90495 H -4.400407 v -7.90495 z"
       style="font-weight:bold;font-size:30.1715px;line-height:0.75;font-family:'Proxima Nova';-inkscape-font-specification:'Proxima Nova Bold';fill-opacity:1;stroke-width:0.754287;fill:#ffffff"
       id="path3609" />
    <path
       d="m 27.983675,118.92379 c -4.01365,0 -6.704991,1.9936 -7.433654,4.63951 h 1.477407 v 1.99988 h -1.656741 c 0.517683,6.94592 11.565202,4.69837 11.565202,8.17521 0,1.14652 -1.146175,2.23243 -3.499538,2.23243 -2.775771,0 -4.978453,-1.2372 -6.396514,-2.7156 l -2.323359,3.25871 c 0.308504,0.31349 0.643943,0.60871 1.002506,0.88625 h 3.673158 v 1.81746 c 1.136755,0.31731 2.410486,0.49455 3.83286,0.49455 4.925959,0 7.543511,-2.28404 7.987611,-5.45548 h -2.509916 v -1.99988 h 2.503726 c -0.98817,-6.32425 -11.481489,-4.52249 -11.481489,-7.57008 0,-1.20686 1.026028,-2.02158 2.866496,-2.02158 2.051659,0 4.224126,0.69387 5.853404,2.20245 l 2.383309,-3.1378 c -1.991303,-1.84046 -4.64629,-2.80603 -7.844468,-2.80603 z"
       style="font-weight:bold;font-size:30.1715px;line-height:0.75;font-family:'Proxima Nova';-inkscape-font-specification:'Proxima Nova Bold';fill-opacity:1;stroke-width:0.754287;fill:#ffffff"
       id="path3611" />
    <path
       d="m 48.911083,118.89382 c -3.76587,0 -7.00278,1.64552 -8.90437,4.38578 h 1.58078 v 1.99988 h -2.64533 c -0.47824,1.21244 -0.74208,2.56236 -0.74208,4.02352 0,6.18516 4.6767,10.40919 10.711,10.40919 2.79061,0 4.82742,-0.96816 6.31586,-2.30942 h -1.51463 v -1.99988 h 3.21739 c 0.1402,-0.21174 0.27511,-0.42461 0.39894,-0.63872 l -3.68091,-1.78025 c -0.79291,1.55752 -2.43615,2.76899 -4.35632,2.91196 v 0.49506 h -4.1765 v -1.71255 c -1.55323,-1.17302 -2.50991,-3.09447 -2.50991,-5.37539 0,-3.8016 2.6553,-6.60734 6.30608,-6.60734 2.08182,0 3.89186,1.29717 4.73665,2.92643 l 3.68091,-1.81022 c -1.41806,-2.50424 -3.98235,-4.91805 -8.41756,-4.91805 z"
       style="font-weight:bold;font-size:30.1715px;line-height:0.75;font-family:'Proxima Nova';-inkscape-font-specification:'Proxima Nova Bold';fill-opacity:1;stroke-width:0.754287;fill:#ffffff"
       id="path3613" />
    <path
       d="m 59.908323,119.22558 v 11.35383 h 2.34974 v 1.99988 h -2.34974 v 6.77065 h 4.28451 v -8.44807 h 9.5038 v 8.44807 h 4.31446 v -5.21157 h -1.69135 v -1.99988 h 1.69135 v -12.91291 h -4.31446 v 0.79427 h 0.86919 v 1.99988 h -0.86919 v 5.1108 h -9.5038 v -2.53577 h -1.55133 v -2.00039 h 1.55133 v -3.36879 z"
       style="font-weight:bold;font-size:30.1715px;line-height:0.75;font-family:'Proxima Nova';-inkscape-font-specification:'Proxima Nova Bold';fill-opacity:1;stroke-width:0.754287;fill:#ffffff"
       id="path3615" />
    <path
       d="m 91.482113,118.89382 c -4.20881,0 -7.63138,2.09392 -9.33275,5.40174 h 1.72442 v 1.99988 h -2.49701 c -0.25611,0.94109 -0.39481,1.94731 -0.39481,3.00756 0,6.06448 4.43569,10.40919 10.50015,10.40919 4.42071,0 7.96663,-2.28703 9.581827,-5.85701 h -2.089247 v -2.00039 h 2.756397 c 0.18262,-0.80833 0.28062,-1.66091 0.28062,-2.55179 0,-6.06447 -4.434947,-10.40918 -10.529597,-10.40918 z m 0,3.80184 c 3.7111,0 6.12468,2.83591 6.12468,6.60734 0,3.74127 -2.41358,6.60735 -6.12468,6.60735 -1.79914,0 -3.28499,-0.67486 -4.3398,-1.79524 h -1.53892 v -2.00039 h 0.29096 c -0.32999,-0.84658 -0.50697,-1.79645 -0.50697,-2.81172 0,-3.77143 2.38363,-6.60734 6.09473,-6.60734 z"
       style="font-weight:bold;font-size:30.1715px;line-height:0.75;font-family:'Proxima Nova';-inkscape-font-specification:'Proxima Nova Bold';fill-opacity:1;stroke-width:0.754287;fill:#ffffff"
       id="path3617" />
    <path
       d="m 114.58198,118.89382 c -4.12803,0 -7.49985,2.01432 -9.233,5.2126 h 1.74664 v 1.99988 h -2.56831 c -0.29038,0.99442 -0.44495,2.0656 -0.44495,3.1967 0,6.06448 4.43516,10.40919 10.49962,10.40919 6.09466,0 10.52961,-4.34471 10.52961,-10.40919 0,-0.0881 -0.004,-0.17458 -0.006,-0.262 h -1.64692 v -1.99987 h 1.43452 c -0.95893,-4.85374 -5.00515,-8.14731 -10.31101,-8.14731 z m 0,3.80184 c 3.71111,0 6.12472,2.83591 6.12472,6.60734 0,3.74127 -2.41361,6.60735 -6.12472,6.60735 -2.01652,0 -3.63987,-0.84746 -4.70307,-2.22053 h -1.14771 v -2.0004 h 0.0274 v -0.005 h 0.0842 c -0.23191,-0.73396 -0.35552,-1.53508 -0.35552,-2.38177 0,-3.77143 2.38363,-6.60734 6.0947,-6.60734 z"
       style="font-weight:bold;font-size:30.1715px;line-height:0.75;font-family:'Proxima Nova';-inkscape-font-specification:'Proxima Nova Bold';fill-opacity:1;stroke-width:0.754287;fill:#ffffff"
       id="path3619" />
    <path
       d="m 128.14758,119.22558 v 1.46761 h 1.82573 v 1.99988 h -1.82573 v 16.65687 h 12.79302 v -0.81287 h -1.45573 v -1.99988 h 1.45573 v -0.9586 h -8.50852 v -5.80275 h -1.95752 v -1.99987 h 1.95752 v -8.55039 z"
       style="font-weight:bold;font-size:30.1715px;line-height:0.75;font-family:'Proxima Nova';-inkscape-font-specification:'Proxima Nova Bold';fill-opacity:1;stroke-width:0.754287;fill:#ffffff"
       id="path3621" />
    <path
       d="m 164.00048,136.63463 v -2.83612 l -10.71088,-4.52572 10.71088,-4.58607 v -2.83612 l -13.45648,6.0343 v 2.7456 z"
       style="font-weight:bold;font-size:30.1715px;line-height:0.75;font-family:'Proxima Nova';-inkscape-font-specification:'Proxima Nova Bold';fill-opacity:1;stroke-width:0.754287;fill:#ffffff"
       id="path3623" />
    <path
       d="m 171.14829,139.35007 v -20.12439 h -4.28435 v 20.12439 z"
       style="font-weight:bold;font-size:30.1715px;line-height:0.75;font-family:'Proxima Nova';-inkscape-font-specification:'Proxima Nova Bold';fill-opacity:1;stroke-width:0.754287;fill:#ffffff"
       id="path3625" />
    <path
       d="m 175.89841,139.9535 7.15065,-21.33125 h -2.77578 l -7.15065,21.33125 z"
       style="font-weight:bold;font-size:30.1715px;line-height:0.75;font-family:'Proxima Nova';-inkscape-font-specification:'Proxima Nova Bold';fill-opacity:1;stroke-width:0.754287;fill:#ffffff"
       id="path3627" />
    <path
       d="m 194.54817,139.71212 c 6.09463,0 10.52987,-4.34469 10.52987,-10.40916 0,-6.06447 -4.43524,-10.40917 -10.52987,-10.40917 -6.06447,0 -10.49968,4.3447 -10.49968,10.40917 0,6.06447 4.43521,10.40916 10.49968,10.40916 z m 0,-3.8016 c -3.71109,0 -6.09464,-2.8663 -6.09464,-6.60756 0,-3.77144 2.38355,-6.60756 6.09464,-6.60756 3.7111,0 6.12482,2.83612 6.12482,6.60756 0,3.74126 -2.41372,6.60756 -6.12482,6.60756 z"
       style="font-weight:bold;font-size:30.1715px;line-height:0.75;font-family:'Proxima Nova';-inkscape-font-specification:'Proxima Nova Bold';fill-opacity:1;stroke-width:0.754287;fill:#ffffff"
       id="path3629" />
    <path
       d="m 220.45417,130.6305 v -2.7456 l -13.4565,-6.0343 v 2.83612 l 10.71092,4.58607 -10.71092,4.52572 v 2.83612 z"
       style="font-weight:bold;font-size:30.1715px;line-height:0.75;font-family:'Proxima Nova';-inkscape-font-specification:'Proxima Nova Bold';fill-opacity:1;stroke-width:0.754287;fill:#ffffff"
       id="path3631" />
    <path
       d="m 223.66851,120.02745 h 12.34723 v 18.52084 h -12.34723 z"
       style="fill-opacity:1;stroke:#ffffff;stroke-width:1.16666;stroke-opacity:1;paint-order:markers fill stroke;fill:#ffffff"
       id="rect1015" />
    <path
       id="path1202-2-5"
       d="m -39.591906,123.9962 h -5.291671"
       style="fill-opacity:1;stroke:#ffffff;stroke-width:2;stroke-linecap:butt;stroke-linejoin:miter;stroke-miterlimit:4;stroke-dasharray:none;stroke-opacity:1;fill:#000000" />
    <path
       style="fill-opacity:1;stroke:#ffffff;stroke-width:2.01113;stroke-linecap:butt;stroke-linejoin:miter;stroke-miterlimit:4;stroke-dasharray:none;stroke-opacity:1;fill:#000000"
       d="m -43.796897,133.24776 h -5.35073"
       id="path1202-2-5-9" />
    <path
       id="path1202-2-5-9-7"
       d="m -44.883577,121.35037 h -5.29167"
       style="fill-opacity:1;stroke:#ffffff;stroke-width:2;stroke-linecap:butt;stroke-linejoin:miter;stroke-miterlimit:4;stroke-dasharray:none;stroke-opacity:1;fill:#000000" />
    <path
       style="fill-opacity:1;stroke:#ffffff;stroke-width:2;stroke-linecap:butt;stroke-linejoin:miter;stroke-miterlimit:4;stroke-dasharray:none;stroke-opacity:1;fill:#000000"
       d="m -51.498157,123.9962 h -2.64584"
       id="path1202-2-5-9-7-3" />
    <path
       id="path1202-2-5-9-7-3-2"
       d="m -63.404407,133.25662 h -1.32292"
       style="fill-opacity:1;stroke:#ffffff;stroke-width:2;stroke-linecap:butt;stroke-linejoin:miter;stroke-miterlimit:4;stroke-dasharray:none;stroke-opacity:1;fill:#000000" />
    <path
       style="fill-opacity:1;stroke:#ffffff;stroke-width:2;stroke-linecap:butt;stroke-linejoin:miter;stroke-miterlimit:4;stroke-dasharray:none;stroke-opacity:1;fill:#000000"
       d="m -63.404407,120.02745 h -2.64584"
       id="path1202-2-5-9-7-3-2-5" />
    <path
       id="path1202-2-5-9-7-3-1"
       d="m -38.268997,134.57954 h -2.64584"
       style="fill-opacity:1;stroke:#ffffff;stroke-width:2;stroke-linecap:butt;stroke-linejoin:miter;stroke-miterlimit:4;stroke-dasharray:none;stroke-opacity:1;fill:#000000" />
    <path
       style="fill-opacity:1;stroke:#ffffff;stroke-width:2;stroke-linecap:butt;stroke-linejoin:miter;stroke-miterlimit:4;stroke-dasharray:none;stroke-opacity:1;fill:#000000"
       d="m -33.506497,130.61079 h -2.116669"
       id="path1202-2-5-9-7-3-2-6" />
    <path
       id="path1202-4-3"
       d="m -13.133578,120.02745 h -7.9375"
       style="fill-opacity:1;stroke:#ffffff;stroke-width:2;stroke-linecap:butt;stroke-linejoin:miter;stroke-miterlimit:4;stroke-dasharray:none;stroke-opacity:1;fill:#000000" />
    <path
       style="fill-opacity:1;stroke:#ffffff;stroke-width:2;stroke-linecap:butt;stroke-linejoin:miter;stroke-miterlimit:4;stroke-dasharray:none;stroke-opacity:1;fill:#000000"
       d="m -15.212446,129.47686 h -7.9375"
       id="path1202-4-3-8" />
    <path
       id="path1202-2-5-9-7-3-7"
       d="m -29.496276,125.31912 h -2.645841"
       style="fill-opacity:1;stroke:#ffffff;stroke-width:2;stroke-linecap:butt;stroke-linejoin:miter;stroke-miterlimit:4;stroke-dasharray:none;stroke-opacity:1;fill:#000000" />
    <path
       style="fill-opacity:1;stroke:#ffffff;stroke-width:2;stroke-linecap:butt;stroke-linejoin:miter;stroke-miterlimit:4;stroke-dasharray:none;stroke-opacity:1;fill:#000000"
       d="m -23.716906,133.25662 h -2.645841"
       id="path1202-2-5-9-7-3-7-7" />
    <path
       id="path1202-4-2"
       d="m -22.299496,137.41436 h -7.9375"
       style="fill-opacity:1;stroke:#ffffff;stroke-width:2;stroke-linecap:butt;stroke-linejoin:miter;stroke-miterlimit:4;stroke-dasharray:none;stroke-opacity:1;fill:#000000" />
    <path
       style="fill-opacity:1;stroke:#ffffff;stroke-width:2;stroke-linecap:butt;stroke-linejoin:miter;stroke-miterlimit:4;stroke-dasharray:none;stroke-opacity:1;fill:#000000"
       d="m -1.132826,134.57954 h -5.29167"
       id="path1202-2-5-0" />
    <path
       id="path1202-2-5-0-1"
       d="M 7.7496044,121.35037 H 2.457934"
       style="fill-opacity:1;stroke:#ffffff;stroke-width:2;stroke-linecap:butt;stroke-linejoin:miter;stroke-miterlimit:4;stroke-dasharray:none;stroke-opacity:1;fill:#000000" />
    <path
       id="path1202-2-5-0-6"
       d="M 11.718354,135.90245 H 6.4266844"
       style="fill-opacity:1;stroke:#ffffff;stroke-width:2;stroke-linecap:butt;stroke-linejoin:miter;stroke-miterlimit:4;stroke-dasharray:none;stroke-opacity:1;fill:#000000" />
    <path
       id="path1202-2-5-0-68"
       d="M 12.001844,125.31912 H 6.7101754"
       style="fill-opacity:1;stroke:#ffffff;stroke-width:2;stroke-linecap:butt;stroke-linejoin:miter;stroke-miterlimit:4;stroke-dasharray:none;stroke-opacity:1;fill:#000000" />
    <path
       style="fill-opacity:1;stroke:#ffffff;stroke-width:2;stroke-linecap:butt;stroke-linejoin:miter;stroke-miterlimit:4;stroke-dasharray:none;stroke-opacity:1;fill:#000000"
       d="m -50.175247,137.22537 h -1.32292"
       id="path1202-2-5-9-7-3-2-69" />
    <path
       id="path1202-2-5-9-7-3-6"
       d="m -19.748156,125.31912 h -2.645841"
       style="fill-opacity:1;stroke:#ffffff;stroke-width:2;stroke-linecap:butt;stroke-linejoin:miter;stroke-miterlimit:4;stroke-dasharray:none;stroke-opacity:1;fill:#000000" />
    <path
       style="fill-opacity:1;stroke:#ffffff;stroke-width:2;stroke-linecap:butt;stroke-linejoin:miter;stroke-miterlimit:4;stroke-dasharray:none;stroke-opacity:1;fill:#000000"
       d="m -31.654406,134.57954 h -1.322922"
       id="path1202-2-5-9-7-3-2-4" />
    <path
       style="fill-opacity:1;stroke:#ffffff;stroke-width:2;stroke-linecap:butt;stroke-linejoin:miter;stroke-miterlimit:4;stroke-dasharray:none;stroke-opacity:1;fill:#000000"
       d="M 0.095594,123.9962 H -2.550247"
       id="path1202-2-5-9-7-3-6-7" />
    <path
       id="path1202-2-5-9-7-3-2-69-8"
       d="M 2.741425,135.90245 H 1.418503"
       style="fill-opacity:1;stroke:#ffffff;stroke-width:2;stroke-linecap:butt;stroke-linejoin:miter;stroke-miterlimit:4;stroke-dasharray:none;stroke-opacity:1;fill:#000000" />
    <path
       style="fill-opacity:1;stroke:#ffffff;stroke-width:2;stroke-linecap:butt;stroke-linejoin:miter;stroke-miterlimit:4;stroke-dasharray:none;stroke-opacity:1;fill:#ffffff"
       d="M 33.593744,133.25662 H 28.302075"
       id="path1202-2-5-0-1-4" />
    <path
       style="fill-opacity:1;stroke:#ffffff;stroke-width:2;stroke-linecap:butt;stroke-linejoin:miter;stroke-miterlimit:4;stroke-dasharray:none;stroke-opacity:1;fill:#000000"
       d="M 37.231753,122.3898 H 31.940085"
       id="path1202-2-5-0-1-4-9-9" />
    <path
       id="path1202-2-5-0-1-4-1"
       d="M 36.003323,137.60335 H 30.711654"
       style="fill-opacity:1;stroke:#ffffff;stroke-width:2;stroke-linecap:butt;stroke-linejoin:miter;stroke-miterlimit:4;stroke-dasharray:none;stroke-opacity:1;fill:#000000" />
    <path
       style="fill-opacity:1;stroke:#ffffff;stroke-width:2;stroke-linecap:butt;stroke-linejoin:miter;stroke-miterlimit:4;stroke-dasharray:none;stroke-opacity:1;fill:#000000"
       d="M 20.978773,130.70528 H 19.655854"
       id="path1202-2-5-9-7-3-2-69-8-5" />
    <path
       id="path1202-2-5-9-7-3-6-79-5"
       d="m 19.372374,121.35037 h -3.68527"
       style="fill-opacity:1;stroke:#fbfbfb;stroke-width:2;stroke-linecap:butt;stroke-linejoin:miter;stroke-miterlimit:4;stroke-dasharray:none;stroke-opacity:1;fill:#000000" />
    <path
       id="path1202-2-5-9-7-3-2-69-8-5-0"
       d="m 37.074183,126.44192 h -1.32292"
       style="fill-opacity:1;stroke:#ffffff;stroke-width:2;stroke-linecap:butt;stroke-linejoin:miter;stroke-miterlimit:4;stroke-dasharray:none;stroke-opacity:1;fill:#000000" />
    <path
       style="fill-opacity:1;stroke:#ffffff;stroke-width:2;stroke-linecap:butt;stroke-linejoin:miter;stroke-miterlimit:4;stroke-dasharray:none;stroke-opacity:1;fill:#000000"
       d="m 45.005313,130.65142 h -5.29167"
       id="path1202-2-5-0-1-4-9-5" />
    <path
       id="path1202-2-5-0-1-4-9-5-7"
       d="m 44.470773,135.52909 h -5.29167"
       style="fill-opacity:1;stroke:#ffffff;stroke-width:2;stroke-linecap:butt;stroke-linejoin:miter;stroke-miterlimit:4;stroke-dasharray:none;stroke-opacity:1;fill:#000000" />
    <path
       style="fill-opacity:1;stroke:#ffffff;stroke-width:2;stroke-linecap:butt;stroke-linejoin:miter;stroke-miterlimit:4;stroke-dasharray:none;stroke-opacity:1;fill:#ffffff"
       d="m 57.633793,120.82926 h -5.29167"
       id="path1202-2-5-0-1-4-9-5-7-9" />
    <path
       id="path1202-2-5-9-7-3-6-79-3"
       d="m 51.232763,129.18143 h -2.64584"
       style="fill-opacity:1;stroke:#ffffff;stroke-width:2;stroke-linecap:butt;stroke-linejoin:miter;stroke-miterlimit:4;stroke-dasharray:none;stroke-opacity:1;fill:#ffffff" />
    <path
       id="path1202-2-5-9-7-3-2-69-8-5-5"
       d="m 57.119403,126.77601 h -1.32292"
       style="fill-opacity:1;stroke:#f9f9f9;stroke-width:2;stroke-linecap:butt;stroke-linejoin:miter;stroke-miterlimit:4;stroke-dasharray:none;stroke-opacity:1;fill:#000000" />
    <path
       style="fill-opacity:1;stroke:#ffffff;stroke-width:2;stroke-linecap:butt;stroke-linejoin:miter;stroke-miterlimit:4;stroke-dasharray:none;stroke-opacity:1;fill:#ffffff"
       d="m 65.910703,135.71347 h -2.64584"
       id="path1202-2-5-9-7-3-6-79-3-8" />
    <path
       id="path1202-2-5-0-1-4-9-5-7-9-6"
       d="m 76.257803,133.20937 h -5.29167"
       style="fill-opacity:1;stroke:#ffffff;stroke-width:2;stroke-linecap:butt;stroke-linejoin:miter;stroke-miterlimit:4;stroke-dasharray:none;stroke-opacity:1;fill:#000000" />
    <path
       style="fill-opacity:1;stroke:#ffffff;stroke-width:2;stroke-linecap:butt;stroke-linejoin:miter;stroke-miterlimit:4;stroke-dasharray:none;stroke-opacity:1;fill:#000000"
       d="m 82.069173,136.84739 h -5.29167"
       id="path1202-2-5-0-1-4-9-5-7-9-6-8" />
    <path
       style="fill-opacity:1;stroke:#ffffff;stroke-width:2;stroke-linecap:butt;stroke-linejoin:miter;stroke-miterlimit:4;stroke-dasharray:none;stroke-opacity:1;fill:#000000"
       d="m 67.847823,132.59516 h -1.32292"
       id="path1202-2-5-9-7-3-2-69-8-0" />
    <path
       style="fill-opacity:1;stroke:#ffffff;stroke-width:2.17124;stroke-linecap:butt;stroke-linejoin:miter;stroke-miterlimit:4;stroke-dasharray:none;stroke-opacity:1;fill:#000000"
       d="m 70.115683,123.24025 h -3.11831"
       id="path1202-2-5-9-7-3-6-79-3-3" />
    <path
       id="path1202-2-5-0-1-4-9-5-8"
       d="m 88.503423,128.44644 h -5.29167"
       style="fill-opacity:1;stroke:#ffffff;stroke-width:2;stroke-linecap:butt;stroke-linejoin:miter;stroke-miterlimit:4;stroke-dasharray:none;stroke-opacity:1;fill:#000000" />
    <path
       style="fill-opacity:1;stroke:#ffffff;stroke-width:2;stroke-linecap:butt;stroke-linejoin:miter;stroke-miterlimit:4;stroke-dasharray:none;stroke-opacity:1;fill:#ffffff"
       d="m 85.563463,133.19048 h -5.29167"
       id="path1202-2-5-0-1-4-9-5-8-9" />
    <path
       id="path1202-2-5-0-1-4-9-5-8-9-5"
       d="M 102.2678,121.89834 H 96.976133"
       style="fill-opacity:1;stroke:#ffffff;stroke-width:2;stroke-linecap:butt;stroke-linejoin:miter;stroke-miterlimit:4;stroke-dasharray:none;stroke-opacity:1;fill:#000000" />
    <path
       style="fill-opacity:1;stroke:#ffffff;stroke-width:2;stroke-linecap:butt;stroke-linejoin:miter;stroke-miterlimit:4;stroke-dasharray:none;stroke-opacity:1;fill:#000000"
       d="m 98.962023,132.86618 h -5.29167"
       id="path1202-2-5-0-1-4-9-5-8-9-5-0" />
    <path
       id="path1202-2-5-0-1-4-9-5-8-9-5-0-6"
       d="m 108.68158,132.63567 h -5.29167"
       style="fill-opacity:1;stroke:#ffffff;stroke-width:2;stroke-linecap:butt;stroke-linejoin:miter;stroke-miterlimit:4;stroke-dasharray:none;stroke-opacity:1;fill:#000000" />
    <path
       style="fill-opacity:1;stroke:#ffffff;stroke-width:2;stroke-linecap:butt;stroke-linejoin:miter;stroke-miterlimit:4;stroke-dasharray:none;stroke-opacity:1;fill:#000000"
       d="m 112.82495,125.11368 h -5.29167"
       id="path1202-2-5-0-1-4-9-5-8-9-5-0-6-1" />
    <path
       style="fill-opacity:1;stroke:#ffffff;stroke-width:2;stroke-linecap:butt;stroke-linejoin:miter;stroke-miterlimit:4;stroke-dasharray:none;stroke-opacity:1;fill:#000000"
       d="m 123.51574,128.04554 h -5.29167"
       id="path1202-2-5-0-1-4-9-5-8-9-5-0-6-15" />
    <path
       id="path1202-2-5-0-1-4-9-5-8-9-5-0-6-15-9"
       d="M 125.58707,134.72728 H 120.2954"
       style="fill-opacity:1;stroke:#ffffff;stroke-width:2;stroke-linecap:butt;stroke-linejoin:miter;stroke-miterlimit:4;stroke-dasharray:none;stroke-opacity:1;fill:#000000" />
    <path
       style="fill-opacity:1;stroke:#ffffff;stroke-width:2;stroke-linecap:butt;stroke-linejoin:miter;stroke-miterlimit:4;stroke-dasharray:none;stroke-opacity:1;fill:#000000"
       d="m 131.84165,137.64971 h -5.29167"
       id="path1202-2-5-0-1-4-9-5-8-9-5-0-6-15-9-2-2-2" />
    <path
       id="path1202-2-5-0-1-4-9-5-8-9-5-0-6-15-9-2-2-2-7"
       d="m 136.21105,132.85639 h -5.29167"
       style="fill-opacity:1;stroke:#ffffff;stroke-width:2;stroke-linecap:butt;stroke-linejoin:miter;stroke-miterlimit:4;stroke-dasharray:none;stroke-opacity:1;fill:#ffffff" />
    <path
       style="fill-opacity:1;stroke:#ffffff;stroke-width:2;stroke-linecap:butt;stroke-linejoin:miter;stroke-miterlimit:4;stroke-dasharray:none;stroke-opacity:1;fill:#000000"
       d="m 92.465793,124.77149 h -1.32292"
       id="path1202-2-5-9-7-3-2-69-8-5-5-9" />
    <path
       id="path1202-2-5-9-7-3-2-69-8-5-5-9-2"
       d="m 113.51327,132.05458 h -1.32292"
       style="fill-opacity:1;stroke:#ffffff;stroke-width:2;stroke-linecap:butt;stroke-linejoin:miter;stroke-miterlimit:4;stroke-dasharray:none;stroke-opacity:1;fill:#000000" />
    <path
       d="m 61.495893,149.2112 c -2.58916,0 -5.34522,0.94635 -7.15485,3.03438 l 2.25524,2.6174 c 1.25281,-1.3085 2.86722,-2.14392 4.98308,-2.14392 1.53123,0 3.00698,0.80744 3.00698,2.42218 0,1.25172 -0.67751,2.39839 -2.53521,4.10249 h 5.0152 c 1.0047,-1.35356 1.52874,-2.68652 1.52874,-4.10249 0,-3.70276 -3.14585,-5.93004 -7.09918,-5.93004 z"
       style="font-weight:bold;font-size:33.6064px;line-height:0.75;font-family:'Proxima Nova';-inkscape-font-specification:'Proxima Nova Bold';fill-opacity:1;stroke-width:0.69601;fill:#ffffff"
       id="path2789" />
    <path
       d="m 78.774013,149.2112 c -5.31751,0 -7.68397,4.78849 -7.68397,9.57703 0,0.15179 0.002,0.30381 0.007,0.4555 h 4.01001 c -0.004,-0.15085 -0.008,-0.30143 -0.008,-0.4555 0,-3.42436 1.00214,-6.06917 3.67481,-6.06917 2.64484,0 3.64699,2.64481 3.64699,6.06917 0,0.15407 -0.004,0.30465 -0.009,0.4555 h 4.03784 c 0.005,-0.15169 0.008,-0.30371 0.008,-0.4555 0,-4.78854 -2.3943,-9.57703 -7.68399,-9.57703 z"
       style="font-weight:bold;font-size:33.6064px;line-height:0.75;font-family:'Proxima Nova';-inkscape-font-specification:'Proxima Nova Bold';fill-opacity:1;stroke-width:0.69601;fill:#ffffff"
       id="path2791" />
    <path
       d="m 95.426263,149.2112 c -2.58916,0 -5.34522,0.94635 -7.15484,3.03438 l 2.25523,2.6174 c 1.25282,-1.3085 2.86764,-2.14392 4.98351,-2.14392 1.53122,0 3.00655,0.80744 3.00655,2.42218 0,1.25172 -0.67751,2.39839 -2.53521,4.10249 h 5.015187 c 1.00471,-1.35356 1.52918,-2.68652 1.52918,-4.10249 0,-3.70276 -3.146287,-5.93004 -7.099607,-5.93004 z"
       style="font-weight:bold;font-size:33.6064px;line-height:0.75;font-family:'Proxima Nova';-inkscape-font-specification:'Proxima Nova Bold';fill-opacity:1;stroke-width:0.69601;fill:#ffffff"
       id="path2793" />
    <path
       d="m 110.22654,149.48946 -5.84656,5.8744 2.25522,2.36654 3.09045,-3.14611 v 4.65944 h 3.95309 v -9.75427 z"
       style="font-weight:bold;font-size:33.6064px;line-height:0.75;font-family:'Proxima Nova';-inkscape-font-specification:'Proxima Nova Bold';fill-opacity:1;stroke-width:0.69601;fill:#ffffff"
       id="path2795" />
    <path
       d="m 55.461543,152.24263 c -0.0549,0.0595 -0.11156,0.11663 -0.16482,0.17808 l 0.16482,0.19137 z m 7.79656,6.94079 c -1.52151,1.43927 -3.91488,3.27548 -7.54356,5.96043 v 3.09003 h 13.97577 v -3.48002 h -7.57267 c 2.79211,-2.03357 4.84355,-3.81431 6.07603,-5.57044 z"
       style="font-weight:bold;font-size:33.6064px;line-height:0.75;font-family:'Proxima Nova';-inkscape-font-specification:'Proxima Nova Bold';fill-opacity:1;stroke-width:0.69601;fill:#ffffff"
       id="path2789-1" />
    <path
       d="m 72.049143,159.18342 c 0.0716,4.71487 2.44454,9.38481 7.68054,9.38481 5.2086,0 7.60817,-4.66994 7.68055,-9.38481 h -4.03741 c -0.0429,3.31708 -1.05579,5.87696 -3.64314,5.87696 -2.61457,0 -3.6276,-2.55988 -3.67053,-5.87696 z"
       style="font-weight:bold;font-size:33.6064px;line-height:0.75;font-family:'Proxima Nova';-inkscape-font-specification:'Proxima Nova Bold';fill-opacity:1;stroke-width:0.69601;fill:#ffffff"
       id="path2791-1" />
    <path
       d="m 97.188473,159.18342 c -1.52151,1.43927 -3.91488,3.27548 -7.54356,5.96043 v 3.09003 h 13.975767 v -3.48002 h -7.572237 c 2.79207,-2.03353 4.843107,-3.81434 6.075597,-5.57044 z"
       style="font-weight:bold;font-size:33.6064px;line-height:0.75;font-family:'Proxima Nova';-inkscape-font-specification:'Proxima Nova Bold';fill-opacity:1;stroke-width:0.69601;fill:#ffffff"
       id="path2793-9" />
    <path
       d="m 110.68134,159.18342 v 9.05046 h 3.9535 v -9.05046 z"
       style="font-weight:bold;font-size:33.6064px;line-height:0.75;font-family:'Proxima Nova';-inkscape-font-specification:'Proxima Nova Bold';fill-opacity:1;stroke-width:0.69601;fill:#ffffff"
       id="path2795-8" />
    <path
       style="fill-opacity:1;stroke:#ffffff;stroke-width:2;stroke-linecap:butt;stroke-linejoin:miter;stroke-miterlimit:4;stroke-dasharray:none;stroke-opacity:1;fill:#000000"
       d="m -58.443466,123.9962 h -5.291671"
       id="path1202-2-5-7" />
    <path
       id="path1202-2-5-9-7-3-5"
       d="m -55.475127,135.92532 h -2.645839"
       style="fill-opacity:1;stroke:#ffffff;stroke-width:2;stroke-linecap:butt;stroke-linejoin:miter;stroke-miterlimit:4;stroke-dasharray:none;stroke-opacity:1;fill:#000000" />
    <rect
       y="120.44486"
       x="-35.679588"
       height="2"
       width="4.1760864"
       id="rect3754-8-5"
       style="opacity:0.999283;fill-opacity:1;stroke-width:0.670761;stroke-miterlimit:4;stroke-dasharray:none;paint-order:markers fill stroke;fill:#ffffff;stroke:none;stroke-opacity:1" />
    <rect
       style="opacity:0.999283;fill-opacity:1;stroke-width:0.670761;stroke-miterlimit:4;stroke-dasharray:none;paint-order:markers fill stroke;fill:#ffffff"
       id="rect3754-8-7-1"
       width="4.1760864"
       height="2"
       x="-10.544167"
       y="126.94133" />
    <rect
       y="123.55136"
       x="22.859489"
       height="2"
       width="4.1760864"
       id="rect3754-8-7-3-3"
       style="opacity:0.999283;fill-opacity:1;stroke-width:0.670761;stroke-miterlimit:4;stroke-dasharray:none;paint-order:markers fill stroke;fill:#ffffff" />
    <rect
       style="opacity:0.999283;fill-opacity:1;stroke-width:0.670761;stroke-miterlimit:4;stroke-dasharray:none;paint-order:markers fill stroke;fill:#ffffff"
       id="rect3754-8-7-3-3-0"
       width="4.1760864"
       height="2"
       x="43.252373"
       y="123.30177" />
    <rect
       style="opacity:0.999283;fill-opacity:1;stroke-width:0.670761;stroke-miterlimit:4;stroke-dasharray:none;paint-order:markers fill stroke;fill:#ffffff"
       id="rect3754-8-7-3-3-0-8-1-6-1"
       width="4.1760864"
       height="2"
       x="75.965118"
       y="120.04326" />
    <rect
       y="122.57098"
       x="58.908966"
       height="2"
       width="3.7272396"
       id="rect3754-8-7-3-3-0-8-1-6-1-3"
       style="opacity:0.999283;fill-opacity:1;stroke-width:0.63369;stroke-miterlimit:4;stroke-dasharray:none;paint-order:markers fill stroke;fill:#ffffff" />
    <rect
       y="120.55959"
       x="130.47435"
       height="2"
       width="4.1760864"
       id="rect3754-8-7-3-3-0-8-1-6-1-8"
       style="opacity:0.999283;fill-opacity:1;stroke-width:0.670761;stroke-miterlimit:4;stroke-dasharray:none;paint-order:markers fill stroke;fill:#ffffff" />
    <rect
       y="127.77586"
       x="126.3317"
       height="2"
       width="4.1760864"
       id="rect3754-8-7-3-3-0-8-1-6-1-7"
       style="opacity:0.999283;fill-opacity:1;stroke-width:0.670761;stroke-miterlimit:4;stroke-dasharray:none;paint-order:markers fill stroke;fill:#fefefe" />
  </g>
</svg>
