<?xml version="1.0" standalone="no"?>
<!DOCTYPE svg PUBLIC "-//W3C//DTD SVG 20010904//EN"
 "http://www.w3.org/TR/2001/REC-SVG-20010904/DTD/svg10.dtd">
<svg version="1.0" xmlns="http://www.w3.org/2000/svg"
 width="5535.000000pt" height="913.000000pt" viewBox="0 0 5535.000000 913.000000"
 preserveAspectRatio="xMidYMid meet">

<g transform="translate(0.000000,913.000000) scale(0.100000,-0.100000)"
fill="#000000" stroke="none">
<path d="M45045 9118 c-3 -7 -297 -884 -654 -1948 l-649 -1935 251 -3 c137 -1
252 -1 254 2 6 5 1303 3875 1303 3887 0 15 -500 12 -505 -3z"/>
<path d="M8065 9069 c-194 -21 -392 -70 -572 -140 l-103 -41 0 -139 0 -139
-216 0 -215 0 -92 -93 c-104 -105 -188 -212 -263 -337 l-51 -85 -177 -3 -176
-2 0 -185 0 -185 104 0 105 0 -10 -32 c-47 -164 -72 -510 -50 -719 40 -386
175 -724 400 -1001 l71 -88 -135 0 -135 0 0 -185 0 -185 383 0 c228 0 387 -4
393 -9 5 -6 63 -33 129 -61 239 -103 488 -157 765 -167 318 -11 591 35 883
149 l77 31 0 188 0 189 278 0 278 0 62 63 62 63 0 712 0 712 -875 0 -875 0 0
-25 0 -25 -130 0 -130 0 0 -185 0 -185 130 0 130 0 0 -135 0 -135 485 0 485 0
0 -220 0 -220 -57 -45 c-68 -53 -227 -134 -333 -169 -403 -132 -851 -54 -1135
198 l-40 35 113 1 112 0 0 185 0 185 -244 0 -245 0 -20 53 c-30 82 -52 164
-65 241 l-12 71 -97 3 -97 3 0 184 0 185 99 0 99 0 12 68 c56 302 237 583 482
746 193 128 391 187 633 187 243 1 435 -61 626 -202 71 -52 188 -171 229 -232
14 -20 28 -37 32 -37 8 0 630 338 640 348 13 13 -152 224 -258 330 l-103 102
115 0 114 0 -2 183 -3 182 -585 7 c-322 3 -666 9 -765 11 -99 3 -216 1 -260
-4z"/>
<path d="M20845 9074 c-16 -2 -70 -9 -120 -15 -384 -47 -767 -217 -1050 -467
-87 -76 -201 -203 -251 -276 l-24 -35 142 -3 143 -3 0 -180 0 -180 -244 -5
-244 -5 -24 -70 c-69 -203 -103 -413 -103 -650 0 -327 56 -594 180 -854 28
-57 50 -105 50 -107 0 -2 -13 -4 -30 -4 l-30 0 0 -180 0 -180 168 0 168 0 39
-41 c101 -104 300 -246 455 -324 296 -148 592 -215 952 -215 384 -1 695 87
973 273 71 48 169 126 173 138 2 5 -57 9 -132 9 l-136 0 0 180 0 180 295 0
294 0 36 56 c20 31 33 60 28 65 -8 8 -648 319 -657 319 -3 0 -30 -38 -60 -85
-73 -111 -174 -211 -289 -286 -128 -83 -247 -126 -419 -154 -37 -6 -38 -7 -38
-50 l0 -45 -380 0 -380 0 0 154 0 154 -104 104 c-57 57 -125 136 -151 176 -44
70 -115 210 -130 260 l-6 22 185 0 186 0 0 180 0 180 -217 2 -218 3 -3 63
c-10 203 73 506 187 685 l31 47 330 0 330 0 0 180 0 180 -112 0 c-130 0 -131
7 -6 50 128 43 237 61 378 61 177 0 287 -25 435 -99 160 -80 310 -212 399
-353 l48 -77 192 93 c275 133 476 234 476 241 0 13 -111 177 -177 261 l-73 93
155 0 155 0 0 185 0 185 -412 3 -413 2 -85 37 c-94 41 -228 79 -365 104 -86
15 -430 28 -500 18z"/>
<path d="M28585 9069 c-528 -54 -995 -304 -1299 -694 -81 -104 -176 -254 -176
-280 0 -3 70 -5 155 -5 l155 0 0 -180 0 -180 -229 0 -229 0 -16 -68 c-43 -188
-50 -264 -50 -492 1 -220 7 -280 50 -487 l7 -33 -97 0 -96 0 0 -185 0 -185
168 0 167 -1 50 -89 c142 -256 386 -501 651 -653 226 -130 479 -213 758 -247
127 -16 411 -13 547 5 358 47 686 183 955 396 104 83 278 272 354 386 60 90
150 250 150 268 0 3 -85 5 -190 5 l-190 0 0 180 0 180 252 2 252 3 8 30 c41
154 53 527 23 730 -42 288 -141 555 -284 773 -34 51 -61 95 -61 97 0 3 92 5
205 5 l205 0 0 180 0 180 -390 0 -389 0 -87 56 c-319 208 -710 317 -1123 313
-69 -1 -162 -5 -206 -10z m367 -694 c157 -13 352 -83 489 -175 130 -88 279
-262 357 -415 36 -73 89 -238 108 -340 14 -73 19 -145 19 -270 0 -173 -9 -248
-47 -387 l-21 -78 -324 0 -323 0 0 -185 0 -185 217 0 217 0 -64 -65 c-154
-156 -355 -255 -587 -290 -246 -37 -517 5 -713 111 -72 40 -189 126 -234 173
l-30 31 -138 0 -138 0 0 180 c0 173 1 180 20 180 25 0 25 2 -5 107 -31 106
-55 248 -55 325 l0 58 283 2 282 3 0 180 0 180 -262 3 c-216 2 -263 5 -263 16
0 26 41 148 75 222 164 360 490 590 885 623 93 8 113 8 252 -4z"/>
<path d="M28750 8005 l0 -185 120 0 120 0 0 185 0 185 -120 0 -120 0 0 -185z"/>
<path d="M32805 9069 c-606 -64 -1123 -382 -1420 -874 l-36 -60 158 -5 158 -5
0 -180 0 -180 -236 -3 -236 -2 -22 -98 c-35 -157 -42 -205 -50 -348 -8 -151 2
-370 22 -486 l14 -78 -83 0 -84 0 0 -180 0 -180 139 0 138 0 47 -97 c284 -588
898 -979 1586 -1012 519 -24 943 93 1322 366 101 73 228 191 302 282 l58 71
234 0 234 0 0 185 0 185 -126 0 c-116 0 -126 1 -118 18 31 71 96 285 113 372
24 129 41 286 41 391 l0 79 -145 0 -145 0 0 180 0 180 125 0 c69 0 125 4 125
8 0 31 -76 276 -114 365 -151 360 -421 665 -762 861 -344 198 -809 290 -1239
245z m425 -700 c341 -49 644 -274 794 -592 19 -40 43 -98 55 -129 l21 -58
-200 0 -200 0 2 -182 3 -183 223 -3 222 -2 0 -99 c0 -170 -44 -366 -119 -527
-182 -390 -555 -624 -996 -624 -310 0 -579 111 -786 322 l-85 88 -102 0 -102
0 0 179 c0 124 3 180 11 183 8 3 5 29 -9 88 -71 290 -47 633 62 893 l16 37
335 0 335 0 0 185 0 185 -197 2 -198 3 65 47 c236 168 527 233 850 187z"/>
<path d="M32600 6675 l0 -185 120 0 120 0 0 185 0 185 -120 0 -120 0 0 -185z"/>
<path d="M47475 9073 c-905 -81 -1565 -684 -1710 -1563 -9 -52 -18 -165 -22
-250 -30 -786 350 -1456 1012 -1781 282 -138 563 -200 909 -200 432 1 793 106
1129 330 115 77 286 234 376 346 186 228 313 502 375 805 56 275 50 625 -15
903 -201 861 -957 1428 -1888 1415 -69 -1 -144 -3 -166 -5z m327 -698 c156
-13 351 -83 489 -175 92 -62 235 -212 297 -312 205 -331 248 -792 111 -1185
-107 -307 -339 -551 -627 -659 -142 -53 -236 -69 -412 -69 -233 0 -403 44
-582 151 -95 57 -254 208 -315 299 -143 213 -214 461 -214 747 0 215 27 364
94 534 155 387 494 639 905 673 95 8 115 8 254 -4z"/>
<path d="M16905 9055 c-474 -77 -823 -303 -995 -645 -27 -53 -70 -162 -70
-177 0 -1 61 -3 135 -3 l135 0 0 -185 0 -185 -150 0 -150 0 0 -30 c0 -52 30
-181 61 -260 60 -156 202 -324 361 -427 192 -124 411 -203 889 -322 344 -85
454 -116 540 -156 l54 -24 -227 0 -228 -1 0 -185 0 -185 321 0 320 0 -7 -22
c-11 -38 -61 -104 -106 -143 -54 -46 -145 -90 -245 -117 -116 -32 -412 -32
-568 0 -308 62 -579 199 -803 407 -34 32 -64 56 -66 54 -7 -7 -402 -564 -410
-577 -10 -17 3 -32 93 -109 l74 -63 339 0 338 0 0 -168 0 -169 93 -21 c202
-46 362 -63 608 -63 108 0 239 5 290 11 200 24 419 85 561 156 l68 34 250 0
250 0 0 180 0 180 -55 0 -55 0 45 89 c43 86 85 213 100 299 l7 42 -231 0 -231
0 2 183 3 182 228 3 228 2 -7 38 c-10 58 -51 177 -83 240 -92 183 -274 343
-523 462 -158 75 -342 133 -713 226 -187 46 -376 96 -420 110 -100 33 -211 85
-250 118 l-30 25 173 1 172 0 0 185 0 185 -172 0 -172 0 30 31 c46 48 158 98
259 116 114 20 337 12 479 -17 261 -52 529 -179 712 -335 l41 -35 103 135 103
135 243 0 244 0 0 180 0 180 -158 0 -158 0 -102 73 c-260 184 -529 294 -872
353 -135 23 -571 29 -695 9z"/>
<path d="M0 8875 l0 -185 240 0 240 0 0 185 0 185 -240 0 -240 0 0 -185z"/>
<path d="M977 9013 c-4 -3 -7 -159 -7 -345 l0 -338 -275 0 -275 0 2 -182 3
-183 272 -3 273 -2 2 -903 3 -902 63 -3 62 -3 0 -179 0 -179 -62 -3 -63 -3 0
-220 0 -220 393 -3 392 -2 0 220 0 220 85 0 85 0 0 185 0 185 -85 0 -85 0 0
370 0 370 868 -2 867 -3 3 -122 3 -123 -206 0 -205 0 0 -185 0 -185 205 0 205
0 0 -465 0 -465 395 0 395 0 0 465 0 465 -110 0 -110 0 0 185 0 185 110 0 110
0 0 660 0 660 273 2 272 3 3 183 2 182 -275 0 -275 0 0 345 0 345 -395 0 -394
0 -3 -102 -3 -103 -297 -3 -298 -2 0 -180 0 -180 300 0 300 0 -2 -437 -3 -438
-867 -3 -868 -2 0 190 0 190 -165 0 -165 0 0 190 0 190 165 0 165 0 0 345 0
345 -388 0 c-214 0 -392 -3 -395 -7z"/>
<path d="M5010 8905 l0 -115 100 0 100 0 0 -180 0 -180 -100 0 -100 0 0 -425
0 -425 150 0 150 0 0 -185 0 -185 -150 0 -150 0 0 -405 0 -405 -205 0 -205 0
0 -185 0 -185 205 0 205 0 0 -345 0 -345 390 0 390 0 0 340 0 340 -135 0 -135
0 0 180 0 180 135 0 135 0 0 190 0 190 80 0 80 0 0 180 0 180 -80 0 -80 0 0
655 0 655 265 0 265 0 0 185 0 185 -265 0 -265 0 0 110 0 110 -390 0 -390 0 0
-115z"/>
<path d="M10490 8315 l0 -705 -170 0 -170 0 0 -185 0 -185 170 0 170 0 0 -430
0 -430 200 0 200 0 0 -185 0 -185 -200 0 -200 0 0 -335 0 -335 390 0 390 0 0
345 0 345 300 0 300 0 0 185 0 185 -300 0 -300 0 2 243 3 242 868 3 867 2 0
-775 0 -775 395 0 395 0 0 225 0 225 210 0 210 0 0 180 0 180 -207 2 -208 3
-3 273 -2 272 -230 0 -230 0 0 185 0 185 230 0 230 0 0 325 0 325 235 0 235 0
0 185 0 185 -235 0 -235 0 0 185 0 185 -75 0 -75 0 0 185 0 185 75 0 75 0 0
95 0 95 -395 0 -395 0 0 -105 0 -105 -240 0 -240 0 0 -180 0 -180 240 0 240 0
0 -440 0 -440 -867 2 -868 3 -3 723 -2 722 -390 0 -390 0 0 -705z"/>
<path d="M23040 8715 l0 -305 -95 0 -95 0 0 -185 0 -185 95 0 95 0 0 -550 0
-550 215 0 215 0 0 -180 0 -180 -215 0 -215 0 0 -620 0 -620 390 0 390 0 0
240 0 240 155 0 155 0 0 185 0 185 -155 0 -155 0 0 350 0 350 868 -2 867 -3 3
-117 3 -118 -251 0 -250 0 0 -185 0 -185 250 0 250 0 0 -470 0 -470 395 0 395
0 0 140 0 140 370 0 370 0 0 180 0 180 -370 0 -370 0 0 155 0 155 -155 0 -155
0 0 185 0 185 155 0 155 0 0 920 0 920 193 2 192 3 3 183 2 182 -195 0 -195 0
0 75 0 75 -395 0 -395 0 0 -75 0 -75 80 0 80 0 0 -180 0 -180 -80 0 -80 0 -2
-467 -3 -468 -867 -3 -868 -2 0 235 0 235 -140 0 -140 0 0 180 0 180 140 0
140 0 0 310 0 310 -390 0 -390 0 0 -305z"/>
<path d="M35520 8885 l0 -135 165 0 165 0 0 -180 0 -180 -165 0 -165 0 0 -465
0 -465 -167 -2 -168 -3 -3 -182 -2 -183 170 0 170 0 -2 -627 -3 -628 -147 -3
-148 -3 0 -179 0 -180 150 0 150 0 0 -65 0 -65 1168 2 1167 3 3 73 3 72 -136
0 -135 0 0 185 0 185 135 0 135 0 0 85 0 85 -780 0 -780 0 0 160 0 160 345 0
345 0 0 180 0 180 -345 0 -345 0 0 190 0 190 -175 0 -175 0 0 185 0 185 175 0
175 0 0 475 0 475 203 2 202 3 0 180 0 180 -202 3 -203 2 0 120 0 120 -390 0
-390 0 0 -135z"/>
<path d="M42600 7180 l0 -1840 390 0 390 0 0 1840 0 1840 -390 0 -390 0 0
-1840z"/>
<path d="M52880 7180 l0 -1800 1235 0 1235 0 0 1800 0 1800 -1235 0 -1235 0 0
-1800z"/>
<path d="M14950 8630 l0 -180 335 0 335 0 0 180 0 180 -335 0 -335 0 0 -180z"/>
<path d="M40838 7986 l-1228 -550 0 -250 0 -251 1228 -547 1227 -547 3 256 c1
141 1 258 -1 260 -2 2 -439 187 -971 412 -531 224 -968 410 -971 412 -2 3 431
191 963 418 532 227 970 417 975 420 4 4 6 122 5 262 l-3 255 -1227 -550z"/>
<path d="M49942 8279 l3 -260 972 -417 c535 -229 969 -419 965 -423 -4 -3
-442 -190 -974 -414 l-968 -408 0 -259 0 -258 33 13 c126 54 2405 1072 2415
1080 9 7 12 71 12 256 l0 247 -1157 519 c-637 285 -1191 533 -1231 552 l-72
33 2 -261z"/>
<path d="M24330 8285 l0 -195 285 0 285 0 0 195 0 195 -285 0 -285 0 0 -195z"/>
<path d="M2180 8145 l0 -185 240 0 240 0 0 185 0 185 -240 0 -240 0 0 -185z"/>
<path d="M11612 8148 l3 -183 240 0 240 0 3 183 2 182 -245 0 -245 0 2 -182z"/>
<path d="M7982 7908 l3 -183 243 -3 242 -2 0 185 0 185 -245 0 -245 0 2 -182z"/>
<path d="M18620 7700 l0 -180 120 0 120 0 0 180 0 180 -120 0 -120 0 0 -180z"/>
<path d="M22280 7640 l0 -180 125 0 125 0 0 180 0 180 -125 0 -125 0 0 -180z"/>
<path d="M20970 7200 l0 -180 240 0 240 0 0 180 0 180 -240 0 -240 0 0 -180z"/>
<path d="M15670 6920 l0 -180 125 0 125 0 0 180 0 180 -125 0 -125 0 0 -180z"/>
<path d="M24250 6575 l0 -185 120 0 120 0 0 185 0 185 -120 0 -120 0 0 -185z"/>
<path d="M240 6455 l0 -185 120 0 120 0 0 185 0 185 -120 0 -120 0 0 -185z"/>
<path d="M6050 6215 l0 -185 120 0 120 0 0 185 0 185 -120 0 -120 0 0 -185z"/>
<path d="M12340 5970 l0 -180 120 0 120 0 0 180 0 180 -120 0 -120 0 0 -180z"/>
<path d="M2660 5730 l0 -180 120 0 120 0 0 180 0 180 -120 0 -120 0 0 -180z"/>
<path d="M23143 3529 c-307 -29 -590 -128 -829 -287 -90 -61 -236 -185 -274
-234 l-20 -27 196 -228 c108 -125 200 -232 205 -237 5 -6 30 11 61 40 161 151
337 249 534 300 570 144 967 -110 855 -548 -39 -150 -124 -280 -308 -469 -68
-69 -123 -129 -123 -133 0 -3 43 -6 96 -6 l96 0 -55 -50 c-186 -169 -577 -480
-1040 -824 l-267 -199 0 -283 0 -284 1275 0 1275 0 0 320 0 320 -684 2 -684 3
120 90 c303 226 581 465 749 645 113 121 218 249 219 267 0 9 -27 13 -90 15
l-89 3 55 85 c142 218 204 412 204 645 0 209 -40 361 -139 528 -226 385 -758
602 -1338 546z"/>
<path d="M26315 3529 c-447 -50 -805 -314 -1019 -752 -136 -279 -207 -588
-210 -921 l-1 -151 86 -3 86 -3 6 -117 c16 -300 106 -635 234 -872 138 -257
339 -460 567 -574 409 -204 941 -176 1313 69 117 78 281 243 362 365 190 288
313 691 322 1060 l2 85 -85 3 -85 3 -6 167 c-27 727 -340 1298 -838 1531 -210
99 -474 138 -734 110z m330 -653 c313 -84 484 -420 504 -991 l6 -180 87 -3 88
-3 -6 -77 c-40 -591 -211 -897 -540 -967 -277 -59 -522 68 -653 337 -79 162
-122 352 -137 607 l-7 121 -84 0 c-61 0 -85 4 -89 13 -10 26 16 373 36 483 40
224 120 403 229 513 75 75 175 133 261 150 30 6 64 13 75 15 33 8 177 -3 230
-18z"/>
<path d="M29340 3530 c-305 -34 -590 -134 -822 -289 -112 -75 -291 -236 -286
-257 4 -16 396 -474 407 -474 4 0 27 21 51 46 151 155 391 278 622 320 128 23
322 23 413 0 358 -93 472 -405 274 -751 -48 -85 -177 -242 -283 -344 -42 -40
-76 -75 -76 -77 0 -2 43 -4 96 -4 60 0 93 -4 89 -10 -12 -20 -305 -266 -479
-404 -99 -77 -335 -258 -525 -401 l-346 -260 0 -280 0 -280 1278 -3 1277 -2 0
320 0 320 -686 2 -687 3 174 132 c303 229 499 399 695 603 84 88 224 257 224
272 0 4 -40 8 -90 8 -49 0 -90 2 -90 5 0 2 23 39 51 82 221 339 268 718 130
1051 -139 336 -476 578 -911 653 -133 23 -376 32 -500 19z"/>
<path d="M31707 2952 l-538 -538 205 -216 206 -215 285 286 285 286 0 -427 0
-428 85 0 85 0 0 -820 0 -820 360 0 360 0 0 830 0 830 -85 0 -85 0 0 885 0
885 -313 0 -312 0 -538 -538z"/>
</g>
</svg>
