<?xml version="1.0" encoding="UTF-8" standalone="no"?>
<svg
   xmlns:dc="http://purl.org/dc/elements/1.1/"
   xmlns:cc="http://creativecommons.org/ns#"
   xmlns:rdf="http://www.w3.org/1999/02/22-rdf-syntax-ns#"
   xmlns:svg="http://www.w3.org/2000/svg"
   xmlns="http://www.w3.org/2000/svg"
   xmlns:sodipodi="http://sodipodi.sourceforge.net/DTD/sodipodi-0.dtd"
   xmlns:inkscape="http://www.inkscape.org/namespaces/inkscape"
   sodipodi:docname="HighSchoolIO_Logo2.svg"
   inkscape:version="1.0 (4035a4fb49, 2020-05-01)"
   id="svg4479"
   version="1.1"
   viewBox="0 0 333.64932 58.94598"
   height="58.94598mm"
   width="333.64932mm">
  <defs
     id="defs4473" />
  <sodipodi:namedview
     inkscape:window-maximized="0"
     inkscape:window-y="0"
     inkscape:window-x="96"
     inkscape:window-height="1030"
     inkscape:window-width="1424"
     fit-margin-bottom="0"
     fit-margin-right="0"
     fit-margin-left="0"
     fit-margin-top="0"
     showgrid="false"
     inkscape:document-rotation="0"
     inkscape:current-layer="layer1"
     inkscape:document-units="mm"
     inkscape:cy="61.917209"
     inkscape:cx="582.31409"
     inkscape:zoom="0.49497475"
     inkscape:pageshadow="2"
     inkscape:pageopacity="0.0"
     borderopacity="1.0"
     bordercolor="#666666"
     pagecolor="#ffffff"
     id="base" />
  <metadata
     id="metadata4476">
    <rdf:RDF>
      <cc:Work
         rdf:about="">
        <dc:format>image/svg+xml</dc:format>
        <dc:type
           rdf:resource="http://purl.org/dc/dcmitype/StillImage" />
        <dc:title></dc:title>
      </cc:Work>
    </rdf:RDF>
  </metadata>
  <g
     transform="translate(81.021084,-114.12225)"
     id="layer1"
     inkscape:groupmode="layer"
     inkscape:label="Layer 1">
    <g
       transform="translate(14.970837,4.5)"
       id="g5298">
      <path
         d="m -75.68977,114.72558 v 13.45913 2.22157 h 0.680062 v 1.99988 h -0.680062 v 2.44378 h 4.284494 v -8.44807 h 9.504327 v 8.44807 h 4.314465 v -1.75442 -3.34501 h -1.553908 v -2.0004 h 1.553908 v -13.02453 h -4.314465 v 7.90495 h -9.504327 v -2.06293 h -1.816944 v -2.07119 h 1.816944 v -3.77083 z"
         style="font-weight:bold;font-size:30.1715px;line-height:0.75;font-family:'Proxima Nova';-inkscape-font-specification:'Proxima Nova Bold';stroke-width:0.754287"
         id="path3603" />
      <path
         d="m -53.650287,114.72558 v 1.24282 h 1.128096 v 1.99988 h -1.128096 v 4.63848 h 1.67173 v 1.99987 h -1.67173 v 10.24331 h 4.28449 v -3.69952 h -1.473811 v -1.99988 h 1.473811 v -14.42496 z"
         style="font-weight:bold;font-size:30.1715px;line-height:0.75;font-family:'Proxima Nova';-inkscape-font-specification:'Proxima Nova Bold';stroke-width:0.754287"
         id="path3605" />
      <path
         d="m -35.655004,114.39382 c -1.786459,0 -3.47427,0.37441 -4.960421,1.07177 v 1.49138 h -2.313554 c -2.109105,1.81266 -3.436483,4.50949 -3.436483,7.84603 0,6.33602 4.827008,10.43916 10.710458,10.43916 1.844815,0 3.488531,-0.38606 4.928897,-1.06299 h -0.117306 v -1.99987 h 3.035475 c 0.250264,-0.23618 0.492066,-0.48156 0.72192,-0.73846 v -7.72407 h -9.594765 v 3.74137 h 5.310272 v 2.41381 c -0.814631,0.75428 -2.504374,1.5384 -4.284493,1.5384 -3.353501,0 -5.864799,-2.36834 -6.251816,-5.70042 h -1.046964 v -1.99988 h 1.070219 c 0.457297,-3.23399 2.937708,-5.51439 6.228561,-5.51439 2.14217,0 3.862015,1.20658 4.767149,2.62464 l 3.560508,-1.93115 c -1.508572,-2.38354 -4.133818,-4.49533 -8.327657,-4.49533 z"
         style="font-weight:bold;font-size:30.1715px;line-height:0.75;font-family:'Proxima Nova';-inkscape-font-specification:'Proxima Nova Bold';stroke-width:0.754287"
         id="path3607" />
      <path
         d="m -23.655737,114.72558 v 14.44822 h 2.17506 v 2.00039 h -2.17506 v 3.67575 h 4.284493 v -8.44807 h 9.5043284 v 8.44807 h 4.314465 v -7.45588 h -2.528527 v -1.99988 h 2.528527 v -7.61452 h -0.851109 v -2.00039 h 0.851109 v -1.05369 h -4.314465 v 7.90495 h -9.5043284 v -7.90495 z"
         style="font-weight:bold;font-size:30.1715px;line-height:0.75;font-family:'Proxima Nova';-inkscape-font-specification:'Proxima Nova Bold';stroke-width:0.754287"
         id="path3609" />
      <path
         d="m 13.012838,114.42379 c -4.0136496,0 -6.7049906,1.9936 -7.4336536,4.63951 h 1.477407 v 1.99988 h -1.656741 c 0.517683,6.94592 11.5652016,4.69837 11.5652016,8.17521 0,1.14652 -1.146175,2.23243 -3.499538,2.23243 -2.775771,0 -4.9784526,-1.2372 -6.3965136,-2.7156 l -2.323359,3.25871 c 0.308504,0.31349 0.643943,0.60871 1.002506,0.88625 h 3.673158 v 1.81746 c 1.1367546,0.31731 2.4104856,0.49455 3.8328596,0.49455 4.925959,0 7.543511,-2.28404 7.987611,-5.45548 H 18.73186 v -1.99988 h 2.503726 c -0.98817,-6.32425 -11.4814886,-4.52249 -11.4814886,-7.57008 0,-1.20686 1.0260276,-2.02158 2.8664956,-2.02158 2.051659,0 4.224126,0.69387 5.853404,2.20245 l 2.383309,-3.1378 c -1.991303,-1.84046 -4.64629,-2.80603 -7.844468,-2.80603 z"
         style="font-weight:bold;font-size:30.1715px;line-height:0.75;font-family:'Proxima Nova';-inkscape-font-specification:'Proxima Nova Bold';stroke-width:0.754287"
         id="path3611" />
      <path
         d="m 33.940246,114.39382 c -3.76587,0 -7.00278,1.64552 -8.90437,4.38578 h 1.58078 v 1.99988 h -2.64533 c -0.47824,1.21244 -0.74208,2.56236 -0.74208,4.02352 0,6.18516 4.6767,10.40919 10.711,10.40919 2.79061,0 4.82742,-0.96816 6.31586,-2.30942 h -1.51463 v -1.99988 h 3.21739 c 0.1402,-0.21174 0.27511,-0.42461 0.39894,-0.63872 l -3.68091,-1.78025 c -0.79291,1.55752 -2.43615,2.76899 -4.35632,2.91196 v 0.49506 h -4.1765 v -1.71255 c -1.55323,-1.17302 -2.50991,-3.09447 -2.50991,-5.37539 0,-3.8016 2.6553,-6.60734 6.30608,-6.60734 2.08182,0 3.89186,1.29717 4.73665,2.92643 l 3.68091,-1.81022 c -1.41806,-2.50424 -3.98235,-4.91805 -8.41756,-4.91805 z"
         style="font-weight:bold;font-size:30.1715px;line-height:0.75;font-family:'Proxima Nova';-inkscape-font-specification:'Proxima Nova Bold';stroke-width:0.754287"
         id="path3613" />
      <path
         d="m 44.937486,114.72558 v 11.35383 h 2.34974 v 1.99988 h -2.34974 v 6.77065 h 4.28451 v -8.44807 h 9.5038 v 8.44807 h 4.31446 v -5.21157 h -1.69135 v -1.99988 h 1.69135 v -12.91291 h -4.31446 v 0.79427 h 0.86919 v 1.99988 h -0.86919 v 5.1108 h -9.5038 v -2.53577 h -1.55133 v -2.00039 h 1.55133 v -3.36879 z"
         style="font-weight:bold;font-size:30.1715px;line-height:0.75;font-family:'Proxima Nova';-inkscape-font-specification:'Proxima Nova Bold';stroke-width:0.754287"
         id="path3615" />
      <path
         d="m 76.511276,114.39382 c -4.20881,0 -7.63138,2.09392 -9.33275,5.40174 h 1.72442 v 1.99988 h -2.49701 c -0.25611,0.94109 -0.39481,1.94731 -0.39481,3.00756 0,6.06448 4.43569,10.40919 10.50015,10.40919 4.42071,0 7.96663,-2.28703 9.58183,-5.85701 h -2.08925 v -2.00039 h 2.7564 c 0.18262,-0.80833 0.28062,-1.66091 0.28062,-2.55179 0,-6.06447 -4.43495,-10.40918 -10.5296,-10.40918 z m 0,3.80184 c 3.7111,0 6.12468,2.83591 6.12468,6.60734 0,3.74127 -2.41358,6.60735 -6.12468,6.60735 -1.79914,0 -3.28499,-0.67486 -4.3398,-1.79524 h -1.53892 v -2.00039 h 0.29096 c -0.32999,-0.84658 -0.50697,-1.79645 -0.50697,-2.81172 0,-3.77143 2.38363,-6.60734 6.09473,-6.60734 z"
         style="font-weight:bold;font-size:30.1715px;line-height:0.75;font-family:'Proxima Nova';-inkscape-font-specification:'Proxima Nova Bold';stroke-width:0.754287"
         id="path3617" />
      <path
         d="m 99.611146,114.39382 c -4.12803,0 -7.49985,2.01432 -9.233,5.2126 h 1.74664 v 1.99988 h -2.56831 c -0.29038,0.99442 -0.44495,2.0656 -0.44495,3.1967 0,6.06448 4.43516,10.40919 10.49962,10.40919 6.094654,0 10.529604,-4.34471 10.529604,-10.40919 0,-0.0881 -0.004,-0.17458 -0.006,-0.262 h -1.64692 v -1.99987 h 1.43452 c -0.95893,-4.85374 -5.00515,-8.14731 -10.311004,-8.14731 z m 0,3.80184 c 3.711104,0 6.124714,2.83591 6.124714,6.60734 0,3.74127 -2.41361,6.60735 -6.124714,6.60735 -2.01652,0 -3.63987,-0.84746 -4.70307,-2.22053 h -1.14771 v -2.0004 h 0.0274 v -0.005 h 0.0842 c -0.23191,-0.73396 -0.35552,-1.53508 -0.35552,-2.38177 0,-3.77143 2.38363,-6.60734 6.0947,-6.60734 z"
         style="font-weight:bold;font-size:30.1715px;line-height:0.75;font-family:'Proxima Nova';-inkscape-font-specification:'Proxima Nova Bold';stroke-width:0.754287"
         id="path3619" />
      <path
         d="m 113.17674,114.72558 v 1.46761 h 1.82573 v 1.99988 h -1.82573 v 16.65687 h 12.79302 v -0.81287 h -1.45573 v -1.99988 h 1.45573 v -0.9586 h -8.50852 v -5.80275 h -1.95752 v -1.99987 h 1.95752 v -8.55039 z"
         style="font-weight:bold;font-size:30.1715px;line-height:0.75;font-family:'Proxima Nova';-inkscape-font-specification:'Proxima Nova Bold';stroke-width:0.754287"
         id="path3621" />
      <path
         d="m 149.02964,132.13463 v -2.83612 l -10.71088,-4.52572 10.71088,-4.58607 v -2.83612 l -13.45648,6.0343 v 2.7456 z"
         style="font-weight:bold;font-size:30.1715px;line-height:0.75;font-family:'Proxima Nova';-inkscape-font-specification:'Proxima Nova Bold';stroke-width:0.754287"
         id="path3623" />
      <path
         d="m 156.17745,134.85007 v -20.12439 h -4.28435 v 20.12439 z"
         style="font-weight:bold;font-size:30.1715px;line-height:0.75;font-family:'Proxima Nova';-inkscape-font-specification:'Proxima Nova Bold';stroke-width:0.754287"
         id="path3625" />
      <path
         d="m 160.92757,135.4535 7.15065,-21.33125 h -2.77578 l -7.15065,21.33125 z"
         style="font-weight:bold;font-size:30.1715px;line-height:0.75;font-family:'Proxima Nova';-inkscape-font-specification:'Proxima Nova Bold';stroke-width:0.754287"
         id="path3627" />
      <path
         d="m 179.57733,135.21212 c 6.09463,0 10.52987,-4.34469 10.52987,-10.40916 0,-6.06447 -4.43524,-10.40917 -10.52987,-10.40917 -6.06447,0 -10.49968,4.3447 -10.49968,10.40917 0,6.06447 4.43521,10.40916 10.49968,10.40916 z m 0,-3.8016 c -3.71109,0 -6.09464,-2.8663 -6.09464,-6.60756 0,-3.77144 2.38355,-6.60756 6.09464,-6.60756 3.7111,0 6.12482,2.83612 6.12482,6.60756 0,3.74126 -2.41372,6.60756 -6.12482,6.60756 z"
         style="font-weight:bold;font-size:30.1715px;line-height:0.75;font-family:'Proxima Nova';-inkscape-font-specification:'Proxima Nova Bold';stroke-width:0.754287"
         id="path3629" />
      <path
         d="m 205.48333,126.1305 v -2.7456 l -13.4565,-6.0343 v 2.83612 l 10.71092,4.58607 -10.71092,4.52572 v 2.83612 z"
         style="font-weight:bold;font-size:30.1715px;line-height:0.75;font-family:'Proxima Nova';-inkscape-font-specification:'Proxima Nova Bold';stroke-width:0.754287"
         id="path3631" />
      <path
         d="m 208.69767,115.52745 h 12.34723 v 18.52084 h -12.34723 z"
         style="fill:#000000;fill-opacity:1;stroke:#000000;stroke-width:1.16666;stroke-opacity:1;paint-order:markers fill stroke"
         id="rect1015" />
      <path
         id="path1202-2-5"
         d="m -54.562743,119.4962 h -5.291671"
         style="fill:none;stroke:#000000;stroke-width:2;stroke-linecap:butt;stroke-linejoin:miter;stroke-miterlimit:4;stroke-dasharray:none;stroke-opacity:1" />
      <path
         style="fill:none;stroke:#000000;stroke-width:2.01113;stroke-linecap:butt;stroke-linejoin:miter;stroke-miterlimit:4;stroke-dasharray:none;stroke-opacity:1"
         d="m -58.767734,128.74776 h -5.35073"
         id="path1202-2-5-9" />
      <path
         id="path1202-2-5-9-7"
         d="m -59.854414,116.85037 h -5.29167"
         style="fill:none;stroke:#000000;stroke-width:2;stroke-linecap:butt;stroke-linejoin:miter;stroke-miterlimit:4;stroke-dasharray:none;stroke-opacity:1" />
      <path
         style="fill:none;stroke:#000000;stroke-width:2;stroke-linecap:butt;stroke-linejoin:miter;stroke-miterlimit:4;stroke-dasharray:none;stroke-opacity:1"
         d="m -66.468994,119.4962 h -2.64584"
         id="path1202-2-5-9-7-3" />
      <path
         id="path1202-2-5-9-7-3-2"
         d="m -78.375244,128.75662 h -1.32292"
         style="fill:none;stroke:#000000;stroke-width:2;stroke-linecap:butt;stroke-linejoin:miter;stroke-miterlimit:4;stroke-dasharray:none;stroke-opacity:1" />
      <path
         style="fill:none;stroke:#000000;stroke-width:2;stroke-linecap:butt;stroke-linejoin:miter;stroke-miterlimit:4;stroke-dasharray:none;stroke-opacity:1"
         d="m -78.375244,115.52745 h -2.64584"
         id="path1202-2-5-9-7-3-2-5" />
      <path
         id="path1202-2-5-9-7-3-1"
         d="m -53.239834,130.07954 h -2.64584"
         style="fill:none;stroke:#000000;stroke-width:2;stroke-linecap:butt;stroke-linejoin:miter;stroke-miterlimit:4;stroke-dasharray:none;stroke-opacity:1" />
      <path
         style="fill:none;stroke:#000000;stroke-width:2;stroke-linecap:butt;stroke-linejoin:miter;stroke-miterlimit:4;stroke-dasharray:none;stroke-opacity:1"
         d="m -48.477334,126.11079 h -2.116669"
         id="path1202-2-5-9-7-3-2-6" />
      <path
         id="path1202-4-3"
         d="m -28.104415,115.52745 h -7.9375"
         style="fill:none;stroke:#000000;stroke-width:2;stroke-linecap:butt;stroke-linejoin:miter;stroke-miterlimit:4;stroke-dasharray:none;stroke-opacity:1" />
      <path
         style="fill:none;stroke:#000000;stroke-width:2;stroke-linecap:butt;stroke-linejoin:miter;stroke-miterlimit:4;stroke-dasharray:none;stroke-opacity:1"
         d="m -30.183283,124.97686 h -7.9375"
         id="path1202-4-3-8" />
      <path
         id="path1202-2-5-9-7-3-7"
         d="m -44.467113,120.81912 h -2.645841"
         style="fill:none;stroke:#000000;stroke-width:2;stroke-linecap:butt;stroke-linejoin:miter;stroke-miterlimit:4;stroke-dasharray:none;stroke-opacity:1" />
      <path
         style="fill:none;stroke:#000000;stroke-width:2;stroke-linecap:butt;stroke-linejoin:miter;stroke-miterlimit:4;stroke-dasharray:none;stroke-opacity:1"
         d="m -38.687743,128.75662 h -2.645841"
         id="path1202-2-5-9-7-3-7-7" />
      <path
         id="path1202-4-2"
         d="m -37.270333,132.91436 h -7.9375"
         style="fill:none;stroke:#000000;stroke-width:2;stroke-linecap:butt;stroke-linejoin:miter;stroke-miterlimit:4;stroke-dasharray:none;stroke-opacity:1" />
      <path
         style="fill:none;stroke:#000000;stroke-width:2;stroke-linecap:butt;stroke-linejoin:miter;stroke-miterlimit:4;stroke-dasharray:none;stroke-opacity:1"
         d="m -16.103663,130.07954 h -5.29167"
         id="path1202-2-5-0" />
      <path
         id="path1202-2-5-0-1"
         d="M -7.2212326,116.85037 H -12.512903"
         style="fill:none;stroke:#000000;stroke-width:2;stroke-linecap:butt;stroke-linejoin:miter;stroke-miterlimit:4;stroke-dasharray:none;stroke-opacity:1" />
      <path
         id="path1202-2-5-0-6"
         d="m -3.2524826,131.40245 h -5.29167"
         style="fill:none;stroke:#000000;stroke-width:2;stroke-linecap:butt;stroke-linejoin:miter;stroke-miterlimit:4;stroke-dasharray:none;stroke-opacity:1" />
      <path
         id="path1202-2-5-0-68"
         d="m -2.9689926,120.81912 h -5.291669"
         style="fill:none;stroke:#000000;stroke-width:2;stroke-linecap:butt;stroke-linejoin:miter;stroke-miterlimit:4;stroke-dasharray:none;stroke-opacity:1" />
      <path
         style="fill:none;stroke:#000000;stroke-width:2;stroke-linecap:butt;stroke-linejoin:miter;stroke-miterlimit:4;stroke-dasharray:none;stroke-opacity:1"
         d="m -65.146084,132.72537 h -1.32292"
         id="path1202-2-5-9-7-3-2-69" />
      <path
         id="path1202-2-5-9-7-3-6"
         d="m -34.718993,120.81912 h -2.645841"
         style="fill:none;stroke:#000000;stroke-width:2;stroke-linecap:butt;stroke-linejoin:miter;stroke-miterlimit:4;stroke-dasharray:none;stroke-opacity:1" />
      <path
         style="fill:none;stroke:#000000;stroke-width:2;stroke-linecap:butt;stroke-linejoin:miter;stroke-miterlimit:4;stroke-dasharray:none;stroke-opacity:1"
         d="m -46.625243,130.07954 h -1.322922"
         id="path1202-2-5-9-7-3-2-4" />
      <path
         style="fill:none;stroke:#000000;stroke-width:2;stroke-linecap:butt;stroke-linejoin:miter;stroke-miterlimit:4;stroke-dasharray:none;stroke-opacity:1"
         d="m -14.875243,119.4962 h -2.645841"
         id="path1202-2-5-9-7-3-6-7" />
      <path
         id="path1202-2-5-9-7-3-2-69-8"
         d="m -12.229412,131.40245 h -1.322922"
         style="fill:none;stroke:#000000;stroke-width:2;stroke-linecap:butt;stroke-linejoin:miter;stroke-miterlimit:4;stroke-dasharray:none;stroke-opacity:1" />
      <path
         style="fill:none;stroke:#000000;stroke-width:2;stroke-linecap:butt;stroke-linejoin:miter;stroke-miterlimit:4;stroke-dasharray:none;stroke-opacity:1"
         d="M 18.622907,128.75662 H 13.331238"
         id="path1202-2-5-0-1-4" />
      <path
         style="fill:none;stroke:#000000;stroke-width:2;stroke-linecap:butt;stroke-linejoin:miter;stroke-miterlimit:4;stroke-dasharray:none;stroke-opacity:1"
         d="M 22.260916,117.8898 H 16.969248"
         id="path1202-2-5-0-1-4-9-9" />
      <path
         id="path1202-2-5-0-1-4-1"
         d="M 21.032486,133.10335 H 15.740817"
         style="fill:none;stroke:#000000;stroke-width:2;stroke-linecap:butt;stroke-linejoin:miter;stroke-miterlimit:4;stroke-dasharray:none;stroke-opacity:1" />
      <path
         style="fill:none;stroke:#000000;stroke-width:2;stroke-linecap:butt;stroke-linejoin:miter;stroke-miterlimit:4;stroke-dasharray:none;stroke-opacity:1"
         d="M 6.0079364,126.20528 H 4.6850174"
         id="path1202-2-5-9-7-3-2-69-8-5" />
      <path
         id="path1202-2-5-9-7-3-6-79-5"
         d="M 4.4015374,116.85037 H 0.71626744"
         style="fill:none;stroke:#000000;stroke-width:2;stroke-linecap:butt;stroke-linejoin:miter;stroke-miterlimit:4;stroke-dasharray:none;stroke-opacity:1" />
      <path
         id="path1202-2-5-9-7-3-2-69-8-5-0"
         d="m 22.103346,121.94192 h -1.32292"
         style="fill:none;stroke:#000000;stroke-width:2;stroke-linecap:butt;stroke-linejoin:miter;stroke-miterlimit:4;stroke-dasharray:none;stroke-opacity:1" />
      <path
         style="fill:none;stroke:#000000;stroke-width:2;stroke-linecap:butt;stroke-linejoin:miter;stroke-miterlimit:4;stroke-dasharray:none;stroke-opacity:1"
         d="m 30.034476,126.15142 h -5.29167"
         id="path1202-2-5-0-1-4-9-5" />
      <path
         id="path1202-2-5-0-1-4-9-5-7"
         d="m 29.499936,131.02909 h -5.29167"
         style="fill:none;stroke:#000000;stroke-width:2;stroke-linecap:butt;stroke-linejoin:miter;stroke-miterlimit:4;stroke-dasharray:none;stroke-opacity:1" />
      <path
         style="fill:none;stroke:#000000;stroke-width:2;stroke-linecap:butt;stroke-linejoin:miter;stroke-miterlimit:4;stroke-dasharray:none;stroke-opacity:1"
         d="m 42.662956,116.32926 h -5.29167"
         id="path1202-2-5-0-1-4-9-5-7-9" />
      <path
         id="path1202-2-5-9-7-3-6-79-3"
         d="m 36.261926,124.68143 h -2.64584"
         style="fill:none;stroke:#000000;stroke-width:2;stroke-linecap:butt;stroke-linejoin:miter;stroke-miterlimit:4;stroke-dasharray:none;stroke-opacity:1" />
      <path
         id="path1202-2-5-9-7-3-2-69-8-5-5"
         d="m 42.148566,122.27601 h -1.32292"
         style="fill:none;stroke:#000000;stroke-width:2;stroke-linecap:butt;stroke-linejoin:miter;stroke-miterlimit:4;stroke-dasharray:none;stroke-opacity:1" />
      <path
         style="fill:none;stroke:#000000;stroke-width:2;stroke-linecap:butt;stroke-linejoin:miter;stroke-miterlimit:4;stroke-dasharray:none;stroke-opacity:1"
         d="m 50.939866,131.21347 h -2.64584"
         id="path1202-2-5-9-7-3-6-79-3-8" />
      <path
         id="path1202-2-5-0-1-4-9-5-7-9-6"
         d="m 61.286966,128.70937 h -5.29167"
         style="fill:none;stroke:#000000;stroke-width:2;stroke-linecap:butt;stroke-linejoin:miter;stroke-miterlimit:4;stroke-dasharray:none;stroke-opacity:1" />
      <path
         style="fill:none;stroke:#000000;stroke-width:2;stroke-linecap:butt;stroke-linejoin:miter;stroke-miterlimit:4;stroke-dasharray:none;stroke-opacity:1"
         d="m 67.098336,132.34739 h -5.29167"
         id="path1202-2-5-0-1-4-9-5-7-9-6-8" />
      <path
         style="fill:none;stroke:#000000;stroke-width:2;stroke-linecap:butt;stroke-linejoin:miter;stroke-miterlimit:4;stroke-dasharray:none;stroke-opacity:1"
         d="m 52.876986,128.09516 h -1.32292"
         id="path1202-2-5-9-7-3-2-69-8-0" />
      <path
         style="fill:none;stroke:#000000;stroke-width:2.17124;stroke-linecap:butt;stroke-linejoin:miter;stroke-miterlimit:4;stroke-dasharray:none;stroke-opacity:1"
         d="m 55.144846,118.74025 h -3.11831"
         id="path1202-2-5-9-7-3-6-79-3-3" />
      <path
         id="path1202-2-5-0-1-4-9-5-8"
         d="m 73.532586,123.94644 h -5.29167"
         style="fill:none;stroke:#000000;stroke-width:2;stroke-linecap:butt;stroke-linejoin:miter;stroke-miterlimit:4;stroke-dasharray:none;stroke-opacity:1" />
      <path
         style="fill:none;stroke:#000000;stroke-width:2;stroke-linecap:butt;stroke-linejoin:miter;stroke-miterlimit:4;stroke-dasharray:none;stroke-opacity:1"
         d="m 70.592626,128.69048 h -5.29167"
         id="path1202-2-5-0-1-4-9-5-8-9" />
      <path
         id="path1202-2-5-0-1-4-9-5-8-9-5"
         d="m 87.296966,117.39834 h -5.29167"
         style="fill:none;stroke:#000000;stroke-width:2;stroke-linecap:butt;stroke-linejoin:miter;stroke-miterlimit:4;stroke-dasharray:none;stroke-opacity:1" />
      <path
         style="fill:none;stroke:#000000;stroke-width:2;stroke-linecap:butt;stroke-linejoin:miter;stroke-miterlimit:4;stroke-dasharray:none;stroke-opacity:1"
         d="m 83.991186,128.36618 h -5.29167"
         id="path1202-2-5-0-1-4-9-5-8-9-5-0" />
      <path
         id="path1202-2-5-0-1-4-9-5-8-9-5-0-6"
         d="m 93.710746,128.13567 h -5.29167"
         style="fill:none;stroke:#000000;stroke-width:2;stroke-linecap:butt;stroke-linejoin:miter;stroke-miterlimit:4;stroke-dasharray:none;stroke-opacity:1" />
      <path
         style="fill:none;stroke:#000000;stroke-width:2;stroke-linecap:butt;stroke-linejoin:miter;stroke-miterlimit:4;stroke-dasharray:none;stroke-opacity:1"
         d="m 97.854116,120.61368 h -5.29167"
         id="path1202-2-5-0-1-4-9-5-8-9-5-0-6-1" />
      <path
         style="fill:none;stroke:#000000;stroke-width:2;stroke-linecap:butt;stroke-linejoin:miter;stroke-miterlimit:4;stroke-dasharray:none;stroke-opacity:1"
         d="m 108.5449,123.54554 h -5.29167"
         id="path1202-2-5-0-1-4-9-5-8-9-5-0-6-15" />
      <path
         id="path1202-2-5-0-1-4-9-5-8-9-5-0-6-15-9"
         d="m 110.61623,130.22728 h -5.29167"
         style="fill:none;stroke:#000000;stroke-width:2;stroke-linecap:butt;stroke-linejoin:miter;stroke-miterlimit:4;stroke-dasharray:none;stroke-opacity:1" />
      <path
         style="fill:none;stroke:#000000;stroke-width:2;stroke-linecap:butt;stroke-linejoin:miter;stroke-miterlimit:4;stroke-dasharray:none;stroke-opacity:1"
         d="m 116.87081,133.14971 h -5.29167"
         id="path1202-2-5-0-1-4-9-5-8-9-5-0-6-15-9-2-2-2" />
      <path
         id="path1202-2-5-0-1-4-9-5-8-9-5-0-6-15-9-2-2-2-7"
         d="m 121.24021,128.35639 h -5.29167"
         style="fill:none;stroke:#000000;stroke-width:2;stroke-linecap:butt;stroke-linejoin:miter;stroke-miterlimit:4;stroke-dasharray:none;stroke-opacity:1" />
      <path
         style="fill:none;stroke:#000000;stroke-width:2;stroke-linecap:butt;stroke-linejoin:miter;stroke-miterlimit:4;stroke-dasharray:none;stroke-opacity:1"
         d="m 77.494956,120.27149 h -1.32292"
         id="path1202-2-5-9-7-3-2-69-8-5-5-9" />
      <path
         id="path1202-2-5-9-7-3-2-69-8-5-5-9-2"
         d="m 98.542436,127.55458 h -1.32292"
         style="fill:none;stroke:#000000;stroke-width:2;stroke-linecap:butt;stroke-linejoin:miter;stroke-miterlimit:4;stroke-dasharray:none;stroke-opacity:1" />
      <path
         d="m 46.525056,144.7112 c -2.58916,0 -5.34522,0.94635 -7.15485,3.03438 l 2.25524,2.6174 c 1.25281,-1.3085 2.86722,-2.14392 4.98308,-2.14392 1.53123,0 3.00698,0.80744 3.00698,2.42218 0,1.25172 -0.67751,2.39839 -2.53521,4.10249 h 5.0152 c 1.0047,-1.35356 1.52874,-2.68652 1.52874,-4.10249 0,-3.70276 -3.14585,-5.93004 -7.09918,-5.93004 z"
         style="font-weight:bold;font-size:33.6064px;line-height:0.75;font-family:'Proxima Nova';-inkscape-font-specification:'Proxima Nova Bold';stroke-width:0.69601"
         id="path2789" />
      <path
         d="m 63.803176,144.7112 c -5.31751,0 -7.68397,4.78849 -7.68397,9.57703 0,0.15179 0.002,0.30381 0.007,0.4555 h 4.01001 c -0.004,-0.15085 -0.008,-0.30143 -0.008,-0.4555 0,-3.42436 1.00214,-6.06917 3.67481,-6.06917 2.64484,0 3.64699,2.64481 3.64699,6.06917 0,0.15407 -0.004,0.30465 -0.009,0.4555 h 4.03784 c 0.005,-0.15169 0.008,-0.30371 0.008,-0.4555 0,-4.78854 -2.3943,-9.57703 -7.68399,-9.57703 z"
         style="font-weight:bold;font-size:33.6064px;line-height:0.75;font-family:'Proxima Nova';-inkscape-font-specification:'Proxima Nova Bold';stroke-width:0.69601"
         id="path2791" />
      <path
         d="m 80.455426,144.7112 c -2.58916,0 -5.34522,0.94635 -7.15484,3.03438 l 2.25523,2.6174 c 1.25282,-1.3085 2.86764,-2.14392 4.98351,-2.14392 1.53122,0 3.00655,0.80744 3.00655,2.42218 0,1.25172 -0.67751,2.39839 -2.53521,4.10249 h 5.01519 c 1.00471,-1.35356 1.52918,-2.68652 1.52918,-4.10249 0,-3.70276 -3.14629,-5.93004 -7.09961,-5.93004 z"
         style="font-weight:bold;font-size:33.6064px;line-height:0.75;font-family:'Proxima Nova';-inkscape-font-specification:'Proxima Nova Bold';stroke-width:0.69601"
         id="path2793" />
      <path
         d="m 95.255706,144.98946 -5.84656,5.8744 2.25522,2.36654 3.09045,-3.14611 v 4.65944 h 3.95309 v -9.75427 z"
         style="font-weight:bold;font-size:33.6064px;line-height:0.75;font-family:'Proxima Nova';-inkscape-font-specification:'Proxima Nova Bold';stroke-width:0.69601"
         id="path2795" />
      <path
         d="m 40.490706,147.74263 c -0.0549,0.0595 -0.11156,0.11663 -0.16482,0.17808 l 0.16482,0.19137 z m 7.79656,6.94079 c -1.52151,1.43927 -3.91488,3.27548 -7.54356,5.96043 v 3.09003 h 13.97577 v -3.48002 h -7.57267 c 2.79211,-2.03357 4.84355,-3.81431 6.07603,-5.57044 z"
         style="font-weight:bold;font-size:33.6064px;line-height:0.75;font-family:'Proxima Nova';-inkscape-font-specification:'Proxima Nova Bold';stroke-width:0.69601"
         id="path2789-1" />
      <path
         d="m 57.078306,154.68342 c 0.0716,4.71487 2.44454,9.38481 7.68054,9.38481 5.2086,0 7.60817,-4.66994 7.68055,-9.38481 h -4.03741 c -0.0429,3.31708 -1.05579,5.87696 -3.64314,5.87696 -2.61457,0 -3.6276,-2.55988 -3.67053,-5.87696 z"
         style="font-weight:bold;font-size:33.6064px;line-height:0.75;font-family:'Proxima Nova';-inkscape-font-specification:'Proxima Nova Bold';stroke-width:0.69601"
         id="path2791-1" />
      <path
         d="m 82.217636,154.68342 c -1.52151,1.43927 -3.91488,3.27548 -7.54356,5.96043 v 3.09003 h 13.97577 v -3.48002 h -7.57224 c 2.79207,-2.03353 4.84311,-3.81434 6.0756,-5.57044 z"
         style="font-weight:bold;font-size:33.6064px;line-height:0.75;font-family:'Proxima Nova';-inkscape-font-specification:'Proxima Nova Bold';stroke-width:0.69601"
         id="path2793-9" />
      <path
         d="m 95.710506,154.68342 v 9.05046 h 3.9535 v -9.05046 z"
         style="font-weight:bold;font-size:33.6064px;line-height:0.75;font-family:'Proxima Nova';-inkscape-font-specification:'Proxima Nova Bold';stroke-width:0.69601"
         id="path2795-8" />
      <path
         style="fill:none;stroke:#000000;stroke-width:2;stroke-linecap:butt;stroke-linejoin:miter;stroke-miterlimit:4;stroke-dasharray:none;stroke-opacity:1"
         d="m -73.414303,119.4962 h -5.291671"
         id="path1202-2-5-7" />
      <path
         id="path1202-2-5-9-7-3-5"
         d="m -70.445964,131.42532 h -2.645839"
         style="fill:none;stroke:#000000;stroke-width:2;stroke-linecap:butt;stroke-linejoin:miter;stroke-miterlimit:4;stroke-dasharray:none;stroke-opacity:1" />
      <rect
         y="115.94486"
         x="-50.650425"
         height="2"
         width="4.1760864"
         id="rect3754-8-5"
         style="opacity:0.999283;fill:#000000;fill-opacity:1;stroke-width:0.670761;stroke-miterlimit:4;stroke-dasharray:none;paint-order:markers fill stroke" />
      <rect
         style="opacity:0.999283;fill:#000000;fill-opacity:1;stroke-width:0.670761;stroke-miterlimit:4;stroke-dasharray:none;paint-order:markers fill stroke"
         id="rect3754-8-7-1"
         width="4.1760864"
         height="2"
         x="-25.515003"
         y="122.44133" />
      <rect
         y="119.05136"
         x="7.8886533"
         height="2"
         width="4.1760864"
         id="rect3754-8-7-3-3"
         style="opacity:0.999283;fill:#000000;fill-opacity:1;stroke-width:0.670761;stroke-miterlimit:4;stroke-dasharray:none;paint-order:markers fill stroke" />
      <rect
         style="opacity:0.999283;fill:#000000;fill-opacity:1;stroke-width:0.670761;stroke-miterlimit:4;stroke-dasharray:none;paint-order:markers fill stroke"
         id="rect3754-8-7-3-3-0"
         width="4.1760864"
         height="2"
         x="28.281536"
         y="118.80177" />
      <rect
         style="opacity:0.999283;fill:#000000;fill-opacity:1;stroke-width:0.670761;stroke-miterlimit:4;stroke-dasharray:none;paint-order:markers fill stroke"
         id="rect3754-8-7-3-3-0-8-1-6-1"
         width="4.1760864"
         height="2"
         x="60.994282"
         y="115.54326" />
      <rect
         y="118.07098"
         x="43.938129"
         height="2"
         width="3.7272396"
         id="rect3754-8-7-3-3-0-8-1-6-1-3"
         style="opacity:0.999283;fill:#000000;fill-opacity:1;stroke-width:0.63369;stroke-miterlimit:4;stroke-dasharray:none;paint-order:markers fill stroke" />
      <rect
         y="116.05959"
         x="115.50352"
         height="2"
         width="4.1760864"
         id="rect3754-8-7-3-3-0-8-1-6-1-8"
         style="opacity:0.999283;fill:#000000;fill-opacity:1;stroke-width:0.670761;stroke-miterlimit:4;stroke-dasharray:none;paint-order:markers fill stroke" />
      <rect
         y="123.27586"
         x="111.36086"
         height="2"
         width="4.1760864"
         id="rect3754-8-7-3-3-0-8-1-6-1-7"
         style="opacity:0.999283;fill:#000000;fill-opacity:1;stroke-width:0.670761;stroke-miterlimit:4;stroke-dasharray:none;paint-order:markers fill stroke" />
    </g>
  </g>
</svg>
